# AST/ASF file generated using VICON BodyLanguage
# -----------------------------------------------
:version 1.10
:name VICON
:units
  mass 1.0
  length 0.45
  angle deg
:documentation
   .ast/.asf automatically generated from VICON data using
   VICON BodyBuilder and BodyLanguage model FoxedUp or BRILLIANT.MOD
:root
   order TX TY TZ RX RY RZ
   axis XYZ
   position 0 0 0  
   orientation 0 0 0 
:bonedata
  begin
     id 1 
     name lhipjoint
     direction 0.623415 -0.642378 0.445763 
     length 2.49859 
     axis 0 0 0  XYZ
  end
  begin
     id 2 
     name lfemur
     direction 0.34202 -0.939693 0  
     length 6.69689  
     axis 0 0 20  XYZ
    dof rx ry rz
    limits (-160.0 20.0)
           (-70.0 70.0)
           (-60.0 70.0)
  end
  begin
     id 3 
     name ltibia
     direction 0.34202 -0.939693 0   
     length 7.37574   
     axis 0 0 20   XYZ
    dof rx
    limits (-10.0 170.0)
  end
  begin
     id 4 
     name lfoot
     direction 0.084323 -0.231675 0.969132   
     length 2.09111   
     axis -90 7.62852e-016 20   XYZ
    dof rx rz
    limits (-45.0 90.0)
           (-70.0 20.0)
  end
  begin
     id 5 
     name ltoes
     direction 1.5357e-011 -4.21957e-011 1   
     length 1.04989   
     axis -90 7.62852e-016 20   XYZ
    dof rx
    limits (-90.0 20.0)
  end
  begin
     id 6 
     name rhipjoint
     direction -0.605402 -0.653903 0.45376   
     length 2.45455  
     axis 0 0 0  XYZ 
  end
  begin
     id 7 
     name rfemur
     direction -0.34202 -0.939693 0   
     length 6.64523   
     axis 0 0 -20   XYZ
    dof rx ry rz
    limits (-160.0 20.0)
           (-70.0 70.0)
           (-70.0 60.0)
  end
  begin
     id 8 
     name rtibia
     direction -0.34202 -0.939693 0   
     length 7.3339   
     axis 0 0 -20   XYZ
    dof rx
    limits (-10.0 170.0)
 end
 begin
     id 9 
     name rfoot
     direction -0.120854 -0.332043 0.93549   
     length 2.23135  
     axis -90 -7.62852e-016 -20   XYZ
    dof rx rz
    limits (-45.0 90.0)
           (-20.0 70.0)
  end
  begin
     id 10 
     name rtoes
     direction -1.53563e-011 -4.21914e-011 1   
     length 1.10614   
     axis -90 -7.62852e-016 -20   XYZ
    dof rx
    limits (-90.0 20.0)
  end
  begin
     id 11 
     name lowerback
     direction 0.0319682 0.998615 -0.0417941   
     length 2.02718   
     axis 0 0 0   XYZ
    dof rx ry rz
    limits (-20.0 45.0)
           (-30.0 30.0)
           (-30.0 30.0)
  end
  begin
     id 12 
     name upperback
     direction 7.63181e-005 0.995808 0.0914691   
     length 1.97539   
     axis 0 0 0   XYZ
    dof rx ry rz
    limits (-20.0 45.0)
           (-30.0 30.0)
           (-30.0 30.0)
  end
  begin
     id 13 
     name thorax
     direction -0.016423 0.993627 0.111514   
     length 2.00349   
     axis 0 0 0   XYZ
    dof rx ry rz
    limits (-20.0 45.0)
           (-30.0 30.0)
           (-30.0 30.0)
  end
  begin
     id 14 
     name lowerneck
     direction -0.174763 0.981668 -0.0760716   
     length 1.71436   
     axis 0 0 0   XYZ
    dof rx ry rz
    limits (-20.0 45.0)
           (-30.0 30.0)
           (-30.0 30.0)
  end
  begin
     id 15 
     name upperneck
     direction 0.345458 0.934587 -0.0848868   
     length 1.72805   
     axis 0 0 0   XYZ
    dof rx ry rz
    limits (-20.0 45.0)
           (-30.0 30.0)
           (-30.0 30.0)
  end
  begin
     id 16
     name head
     direction 0.13001 0.989848 -0.0574291  
     length 1.767  
     axis 0 0 0   XYZ
    dof rx ry rz
    limits (-20.0 45.0)
           (-30.0 30.0)
           (-30.0 30.0)
  end
  begin
     id 17 
     name lclavicle
     direction 0.952951 0.290122 0.0878234  
     length 3.54654  
     axis 0 0 0   XYZ
    dof ry rz
    limits (-20.0 10.0)
           (0.0 20.0)
  end
  begin
     id 18 
     name lhumerus
     direction 1 -4.48957e-011 -4.56525e-028   
     length 5.19807   
     axis 180 -30 -90   XYZ
    dof rx ry rz
    limits (-60.0 90.0)
           (-90.0 90.0)
           (-90.0 90.0)
  end
  begin
     id 19
     name lradius
     direction 1 -4.48979e-011 -2.0317e-027   
     length 3.0937   
     axis 180 -30 -90   XYZ
    dof rx
    limits (-10.0 170.0)
  end
  begin
     id 20
     name lwrist
     direction 1 -4.48953e-011 -3.05809e-027   
     length 1.54685   
     axis 8.48514e-016 90 90   XYZ
    dof ry
    limits (-180.0 0.0)
 end
  begin
     id 21 
     name lhand
     direction 1 -4.48952e-011 -6.11639e-027   
     length 0.672632   
     axis 3.9013e-015 90 90   XYZ
    dof rx rz
    limits (-90.0 90.0)
           (-45.0 45.0)
  end
  begin
     id 22 
     name lfingers
     direction 1 -4.48925e-011 -1.22426e-026   
     length 0.542293   
     axis 7.80276e-015 90 90   XYZ
    dof rx
    limits (0.0 90.0)
  end
  begin
     id 23
     name lthumb
     direction 0.707107 -6.3486e-011 0.707107   
     length 0.778628   
     axis -90 45 5.37419e-014   XYZ
    dof rx rz
    limits (-45.0 45.0)
           (-45.0 45.0)
  end
  begin
     id 24 
     name rclavicle
     direction -0.960732 0.273675 -0.0457849   
     length 3.52079  
     axis 0 0 0   XYZ 
    dof ry rz
    limits (-10.0 20.0)
           (-20.0 0.0)
  end
  begin
     id 25 
     name rhumerus
     direction -1 -4.48976e-011 -1.63613e-027  
     length 5.45222   
     axis 180 30 90   XYZ
    dof rx ry rz
    limits (-90.0 60.0)
           (-90.0 90.0)
           (-90.0 90.0)
  end
  begin
     id 26 
     name rradius
     direction -1 -4.48957e-011 -7.00033e-028   
     length 3.01284   
     axis 180 30 90   XYZ
    dof rx
    limits (-10.0 170.0)
  end
  begin
     id 27 
     name rwrist
     direction -1 -4.48983e-011 -3.05543e-027   
     length 1.50642   
     axis 8.48514e-016 -90 -90   XYZ
    dof ry
    limits (-180.0 0.0)
  end
  begin
     id 28
     name rhand
     direction -1 -4.48984e-011 -6.11072e-027   
     length 0.622296   
     axis 3.9013e-015 -90 -90   XYZ
    dof rx rz
    limits (-90.0 90.0)
           (-45.0 45.0)
  end
  begin
     id 29
     name rfingers
     direction -1 -4.48865e-011 -1.22637e-026   
     length 0.501711   
     axis 7.80276e-015 -90 -90   XYZ
    dof rx
    limits (0.0 90.0)
  end
  begin
     id 30
     name rthumb
     direction -0.707107 -6.34932e-011 0.707107   
     length 0.72036   
     axis -90 -45 -5.37419e-014   XYZ
    dof rx rz
    limits (-45.0 45.0)
           (-45.0 45.0)
  end
:hierarchy
  begin
    root lhipjoint rhipjoint lowerback
    lhipjoint lfemur
    lfemur ltibia
    ltibia lfoot
    lfoot ltoes
    rhipjoint rfemur
    rfemur rtibia
    rtibia rfoot
    rfoot rtoes
    lowerback upperback
    upperback thorax
    thorax lowerneck lclavicle rclavicle
    lowerneck upperneck
    upperneck head
    lclavicle lhumerus
    lhumerus lradius
    lradius lwrist
    lwrist lhand lthumb
    lhand lfingers
    rclavicle rhumerus
    rhumerus rradius
    rradius rwrist
    rwrist rhand rthumb
    rhand rfingers
  end

#!OML:ASF H:\Not Pregnant\Project 1\Capture day 1\Session 1\non-pregnant.ASF
:FULLY-SPECIFIED
:DEGREES
183
root -5.81854 16.4253 -14.3617 -172.368 1.13663 -173.703
lowerback 4.95706 2.31748 6.92896
upperback -5.75153 4.12282 0.963279
thorax -8.49041 1.74011 -3.36088
lowerneck 21.4579 -7.66833 -30.8381
upperneck -11.8981 -19.8871 43.0766
head 1.55224 -13.6337 22.2436
rclavicle 4.10149e-014 2.9122e-014
rhumerus -33.9766 -8.49855 -80.2315
rradius 29.6454
rwrist 19.022
rhand -10.2885 -0.559658
rfingers 7.12502
rthumb 15.7058 -29.9423
lclavicle 4.10149e-014 2.9122e-014
lhumerus -50.975 1.46756 85.8336
lradius 29.9966
lwrist 40.8455
lhand -14.0969 -5.33934
lfingers 7.12502
lthumb 12.0356 24.2946
rfemur -17.4255 0.523866 31.901
rtibia 33.2656
rfoot -20.0289 15.7274
rtoes -8.3561
lfemur -40.6563 8.74747 -14.384
ltibia 65.1199
lfoot -12.5111 4.96942
ltoes -31.5061
184
root -5.81191 16.4219 -14.2885 -172.445 1.06511 -173.739
lowerback 4.89276 2.29588 6.9092
upperback -5.76091 4.09128 0.981209
thorax -8.46864 1.72869 -3.32426
lowerneck 21.4351 -7.67105 -30.8578
upperneck -11.8273 -19.9067 43.0431
head 1.57916 -13.6354 22.2153
rclavicle 8.69434e-014 4.30866e-014
rhumerus -34.4283 -8.89764 -79.9062
rradius 28.7502
rwrist 19.8074
rhand -10.0658 -0.488077
rfingers 7.12502
rthumb 15.9203 -29.8537
lclavicle 8.69434e-014 4.30866e-014
lhumerus -51.2324 1.48023 85.8212
lradius 29.8718
lwrist 40.6669
lhand -13.7978 -5.21956
lfingers 7.12502
lthumb 12.324 24.3972
rfemur -17.8341 0.357551 31.886
rtibia 33.5984
rfoot -19.8847 15.9212
rtoes -8.2489
lfemur -39.8215 8.87551 -14.34
ltibia 66.4259
lfoot -12.6902 4.68382
ltoes -31.6295
185
root -5.80559 16.4195 -14.2157 -172.504 0.993694 -173.768
lowerback 4.817 2.27506 6.90005
upperback -5.78147 4.06258 0.996769
thorax -8.45143 1.71806 -3.29615
lowerneck 21.4099 -7.67734 -30.8739
upperneck -11.755 -19.9282 43.0035
head 1.60621 -13.6368 22.1811
rclavicle -3.83282e-014 -3.10104e-014
rhumerus -34.9061 -9.33482 -79.5487
rradius 27.8663
rwrist 20.6616
rhand -9.83962 -0.40718
rfingers 7.12502
rthumb 16.1381 -29.7553
lclavicle -3.83282e-014 -3.10104e-014
lhumerus -51.4677 1.447 85.8207
lradius 29.7423
lwrist 40.359
lhand -13.4915 -5.21293
lfingers 7.12502
lthumb 12.6194 24.3859
rfemur -18.2428 0.202762 31.8783
rtibia 33.894
rfoot -19.7123 16.1095
rtoes -8.13012
lfemur -38.9238 8.9877 -14.2757
ltibia 67.5934
lfoot -12.8114 4.2281
ltoes -31.7503
186
root -5.79922 16.4183 -14.1431 -172.546 0.927572 -173.785
lowerback 4.72078 2.25365 6.89861
upperback -5.8108 4.03434 1.01594
thorax -8.43167 1.70793 -3.26777
lowerneck 21.4001 -7.67457 -30.8915
upperneck -11.6886 -19.9372 42.9594
head 1.62273 -13.6324 22.1514
rclavicle -8.30081e-015 3.18055e-015
rhumerus -35.4097 -9.79865 -79.1583
rradius 27.003
rwrist 21.5839
rhand -9.59406 -0.331634
rfingers 7.12502
rthumb 16.3745 -29.6604
lclavicle -8.30081e-015 3.18055e-015
lhumerus -51.6763 1.38753 85.8232
lradius 29.6033
lwrist 39.938
lhand -13.1951 -5.26427
lfingers 7.12502
lthumb 12.9051 24.3167
rfemur -18.6488 0.0740279 31.8867
rtibia 34.1506
rfoot -19.515 16.2768
rtoes -8.03237
lfemur -37.9645 9.09188 -14.1838
ltibia 68.6111
lfoot -12.8483 3.59638
ltoes -31.8512
187
root -5.79302 16.4189 -14.0713 -172.576 0.861162 -173.807
lowerback 4.60477 2.23444 6.89583
upperback -5.84246 4.00737 1.0305
thorax -8.4024 1.6989 -3.24266
lowerneck 21.3826 -7.67979 -30.9046
upperneck -11.6242 -19.9486 42.905
head 1.63896 -13.6265 22.1116
rclavicle -4.34624e-014 -1.92821e-014
rhumerus -35.9308 -10.3042 -78.7306
rradius 26.1687
rwrist 22.5592
rhand -9.33046 -0.276834
rfingers 7.12502
rthumb 16.6283 -29.5845
lclavicle -4.34624e-014 -1.92821e-014
lhumerus -51.8445 1.29807 85.8294
lradius 29.4586
lwrist 39.4178
lhand -12.9159 -5.34959
lfingers 7.12502
lthumb 13.1743 24.2142
rfemur -19.0473 -0.0529521 31.8898
rtibia 34.3698
rfoot -19.3006 16.4419
rtoes -7.93861
lfemur -36.935 9.17473 -14.0864
ltibia 69.4638
lfoot -12.7675 2.78991
ltoes -31.8618
188
root -5.78685 16.4208 -13.9997 -172.594 0.798983 -173.836
lowerback 4.46996 2.2166 6.88529
upperback -5.87693 3.98035 1.04258
thorax -8.36535 1.69074 -3.21498
lowerneck 21.3707 -7.68472 -30.9158
upperneck -11.5648 -19.9528 42.8389
head 1.64748 -13.6149 22.0669
rclavicle 1.07282e-014 2.68359e-015
rhumerus -36.4685 -10.8501 -78.2638
rradius 25.3623
rwrist 23.595
rhand -9.04303 -0.236692
rfingers 7.12502
rthumb 16.905 -29.5209
lclavicle 1.07282e-014 2.68359e-015
lhumerus -51.9782 1.19076 85.835
lradius 29.3087
lwrist 38.8146
lhand -12.6687 -5.47014
lfingers 7.12502
lthumb 13.4125 24.0781
rfemur -19.4431 -0.170472 31.8871
rtibia 34.5561
rfoot -19.0658 16.6041
rtoes -7.86154
lfemur -35.8445 9.24291 -13.988
ltibia 70.1465
lfoot -12.534 1.81696
ltoes -31.8227
189
root -5.7809 16.4238 -13.9286 -172.605 0.739008 -173.874
lowerback 4.3219 2.19927 6.86873
upperback -5.91524 3.95267 1.05016
thorax -8.32474 1.68273 -3.18812
lowerneck 21.3656 -7.68776 -30.9237
upperneck -11.507 -19.9475 42.7584
head 1.64729 -13.5962 22.0166
rclavicle 5.92006e-015 9.14409e-015
rhumerus -37.0279 -11.4275 -77.7603
rradius 24.5897
rwrist 24.6708
rhand -8.73715 -0.208838
rfingers 7.12502
rthumb 17.1994 -29.4677
lclavicle 5.92006e-015 9.14409e-015
lhumerus -52.091 1.05177 85.8508
lradius 29.1786
lwrist 38.1711
lhand -12.4756 -5.58441
lfingers 7.12502
lthumb 13.5987 23.9514
rfemur -19.8317 -0.28377 31.8735
rtibia 34.7154
rfoot -18.8184 16.7652
rtoes -7.80473
lfemur -34.6855 9.29417 -13.8957
ltibia 70.654
lfoot -12.1255 0.686662
ltoes -31.755
190
root -5.77533 16.428 -13.858 -172.612 0.677298 -173.932
lowerback 4.15435 2.1809 6.83813
upperback -5.95071 3.91966 1.05069
thorax -8.2702 1.67322 -3.15929
lowerneck 21.3586 -7.69192 -30.9288
upperneck -11.4519 -19.9336 42.6634
head 1.64026 -13.57 21.9586
rclavicle -2.3059e-014 -5.98839e-015
rhumerus -37.5952 -12.0306 -77.225
rradius 23.8518
rwrist 25.7649
rhand -8.41227 -0.201321
rfingers 7.12502
rthumb 17.5121 -29.4326
lclavicle -2.3059e-014 -5.98839e-015
lhumerus -52.1765 0.88541 85.8787
lradius 29.0659
lwrist 37.5229
lhand -12.3388 -5.74661
lfingers 7.12502
lthumb 13.7305 23.7804
rfemur -20.2147 -0.402777 31.8367
rtibia 34.8545
rfoot -18.5619 16.9322
rtoes -7.76194
lfemur -33.4613 9.32052 -13.8246
ltibia 70.9801
lfoot -11.5415 -0.592135
ltoes -31.6856
191
root -5.76982 16.4327 -13.7875 -172.616 0.621639 -174.001
lowerback 3.97995 2.16415 6.7956
upperback -5.98031 3.88583 1.04637
thorax -8.20544 1.66405 -3.1284
lowerneck 21.3299 -7.70436 -30.9284
upperneck -11.3938 -19.9162 42.5524
head 1.63317 -13.537 21.8864
rclavicle 1.46511e-014 5.09386e-015
rhumerus -38.158 -12.6512 -76.6666
rradius 23.1447
rwrist 26.8624
rhand -8.08981 -0.202293
rfingers 7.12502
rthumb 17.8224 -29.4056
lclavicle 1.46511e-014 5.09386e-015
lhumerus -52.2237 0.698369 85.9132
lradius 28.9666
lwrist 36.8871
lhand -12.2683 -5.98294
lfingers 7.12502
lthumb 13.7985 23.5394
rfemur -20.5931 -0.509652 31.7867
rtibia 34.9802
rfoot -18.2936 17.0935
rtoes -7.74179
lfemur -32.1773 9.33073 -13.7647
ltibia 71.1245
lfoot -10.7663 -2.02565
ltoes -31.6117
192
root -5.76485 16.4382 -13.7177 -172.619 0.561188 -174.087
lowerback 3.79182 2.13959 6.73923
upperback -6.01555 3.84016 1.03929
thorax -8.14043 1.64999 -3.09124
lowerneck 21.313 -7.70081 -30.9368
upperneck -11.3273 -19.8774 42.4291
head 1.61594 -13.4919 21.8176
rclavicle 2.82926e-014 -1.15792e-014
rhumerus -38.7391 -13.2528 -76.092
rradius 22.4781
rwrist 27.9452
rhand -7.77747 -0.209304
rfingers 7.12502
rthumb 18.1229 -29.385
lclavicle 2.82926e-014 -1.15792e-014
lhumerus -52.2676 0.498219 85.9552
lradius 28.8821
lwrist 36.287
lhand -12.2496 -6.29795
lfingers 7.12502
lthumb 13.8165 23.2232
rfemur -20.9673 -0.627294 31.7161
rtibia 35.0992
rfoot -18.0242 17.2592
rtoes -7.73354
lfemur -30.8354 9.30947 -13.7271
ltibia 71.081
lfoot -9.79993 -3.60118
ltoes -31.5472
193
root -5.76009 16.4441 -13.648 -172.619 0.498599 -174.192
lowerback 3.59664 2.11038 6.66411
upperback -6.05075 3.78601 1.02881
thorax -8.07265 1.63282 -3.04629
lowerneck 21.2812 -7.695 -30.9551
upperneck -11.2496 -19.8317 42.2965
head 1.60125 -13.4401 21.745
rclavicle -1.84e-014 4.00054e-015
rhumerus -39.3168 -13.8401 -75.5048
rradius 21.8487
rwrist 29.0112
rhand -7.47736 -0.226852
rfingers 7.12502
rthumb 18.4117 -29.3755
lclavicle -1.84e-014 4.00054e-015
lhumerus -52.2853 0.294627 85.9971
lradius 28.7952
lwrist 35.6977
lhand -12.2554 -6.73519
lfingers 7.12502
lthumb 13.8108 22.7863
rfemur -21.3452 -0.742914 31.6242
rtibia 35.2193
rfoot -17.747 17.4234
rtoes -7.71873
lfemur -29.45 9.2589 -13.714
ltibia 70.851
lfoot -8.60531 -5.32098
ltoes -31.3553
194
root -5.75551 16.45 -13.5782 -172.617 0.435973 -174.314
lowerback 3.40061 2.07266 6.56705
upperback -6.09571 3.72049 1.01763
thorax -8.01703 1.61106 -2.98944
lowerneck 21.2544 -7.67123 -30.9917
upperneck -11.1502 -19.7695 42.1567
head 1.5853 -13.379 21.6783
rclavicle -3.02067e-014 -2.7482e-014
rhumerus -39.9147 -14.3827 -74.9152
rradius 21.2739
rwrist 30.0488
rhand -7.18735 -0.241059
rfingers 7.12502
rthumb 18.6906 -29.3631
lclavicle -3.02067e-014 -2.7482e-014
lhumerus -52.3025 0.0975963 86.0298
lradius 28.7158
lwrist 35.1172
lhand -12.2683 -7.20658
lfingers 7.12502
lthumb 13.7984 22.3158
rfemur -21.7294 -0.848766 31.5127
rtibia 35.3469
rfoot -17.4681 17.5774
rtoes -7.71737
lfemur -28.0293 9.18463 -13.7269
ltibia 70.4356
lfoot -7.18224 -7.15864
ltoes -31.0119
195
root -5.75125 16.4557 -13.5084 -172.615 0.364667 -174.46
lowerback 3.19993 2.02602 6.44662
upperback -6.142 3.6413 1.00472
thorax -7.96218 1.58389 -2.92033
lowerneck 21.2158 -7.63857 -31.052
upperneck -11.0366 -19.7013 42.0199
head 1.57636 -13.3139 21.6187
rclavicle -2.2312e-014 5.66536e-015
rhumerus -40.5106 -14.8827 -74.3269
rradius 20.7553
rwrist 31.0507
rhand -6.90367 -0.251347
rfingers 7.12502
rthumb 18.9635 -29.3469
lclavicle -2.2312e-014 5.66536e-015
lhumerus -52.2928 -0.0821975 86.0489
lradius 28.6301
lwrist 34.5318
lhand -12.2707 -7.66311
lfingers 7.12502
lthumb 13.7962 21.8594
rfemur -22.1207 -0.956866 31.3739
rtibia 35.4864
rfoot -17.1959 17.7242
rtoes -7.71622
lfemur -26.5762 9.07831 -13.7765
ltibia 69.8376
lfoot -5.51901 -9.08047
ltoes -30.3841
